<svg xmlns="http://www.w3.org/2000/svg" xmlns:xlink="http://www.w3.org/1999/xlink" width="500" zoomAndPan="magnify" viewBox="0 0 375 374.999991" height="500" preserveAspectRatio="xMidYMid meet" version="1.0"><defs><g/><clipPath id="2f50be8981"><path d="M 183 46.371094 L 270 46.371094 L 270 175 L 183 175 Z M 183 46.371094 " clip-rule="nonzero"/></clipPath></defs><g clip-path="url(#2f50be8981)"><path fill="#c77dff" d="M 262.824219 174.066406 C 259.152344 164.882812 247.375 156.417969 238.683594 151.8125 C 215.183594 139.398438 200.617188 130.882812 192 121.496094 C 166.199219 93.433594 207.625 63.027344 215.058594 46.371094 C 206.339844 72.535156 208.984375 94.160156 247.25 112.640625 C 276.359375 126.679688 271.691406 159.414062 262.824219 174.066406 Z M 262.824219 174.066406 " fill-opacity="1" fill-rule="evenodd"/></g><path fill="#7b2cbf" d="M 236.859375 240.804688 C 219.726562 249.796875 212.355469 260.742188 162.726562 229.832031 C 131.402344 210.324219 155.582031 194.285156 141.769531 167.851562 C 159.417969 192.835938 169.558594 196.183594 204.957031 215.066406 C 215.636719 220.765625 224.820312 205.355469 212.996094 198.761719 C 156.664062 167.324219 106.847656 152.316406 187.195312 76.925781 C 146.914062 125.648438 178.148438 135.082031 240.558594 173.601562 C 245.578125 176.695312 262.167969 186.972656 261.554688 199.226562 C 267.113281 194.296875 269.113281 188.09375 269.753906 182.722656 C 273.328125 208.535156 269 223.921875 236.859375 240.804688 Z M 236.859375 240.804688 " fill-opacity="1" fill-rule="evenodd"/><g fill="#7b2cbf" fill-opacity="1"><g transform="translate(98.582004, 305.405256)"><g><path d="M 24.234375 -40.015625 L 24.234375 -30.75 L 14.0625 -30.75 C 13.488281 -30.75 12.984375 -30.625 12.546875 -30.375 C 12.109375 -30.125 11.890625 -29.695312 11.890625 -29.09375 C 11.890625 -28.5625 12.269531 -27.953125 13.03125 -27.265625 C 13.789062 -26.578125 14.972656 -25.71875 16.578125 -24.6875 C 18.097656 -23.695312 19.488281 -22.71875 20.75 -21.75 C 22.007812 -20.78125 23.082031 -19.789062 23.96875 -18.78125 C 24.863281 -17.769531 25.5625 -16.703125 26.0625 -15.578125 C 26.5625 -14.453125 26.8125 -13.242188 26.8125 -11.953125 C 26.8125 -9.929688 26.582031 -8.234375 26.125 -6.859375 C 25.664062 -5.484375 24.941406 -4.320312 23.953125 -3.375 C 22.734375 -2.15625 21.140625 -1.285156 19.171875 -0.765625 C 17.210938 -0.253906 15.015625 0 12.578125 0 L 2 0 L 2 -9.265625 L 12.515625 -9.265625 C 13.503906 -9.265625 14.34375 -9.429688 15.03125 -9.765625 C 15.71875 -10.109375 16.0625 -10.664062 16.0625 -11.4375 C 16.0625 -12.15625 15.648438 -12.894531 14.828125 -13.65625 C 14.015625 -14.414062 12.785156 -15.351562 11.140625 -16.46875 C 9.578125 -17.488281 8.207031 -18.484375 7.03125 -19.453125 C 5.851562 -20.429688 4.875 -21.40625 4.09375 -22.375 C 3.3125 -23.34375 2.71875 -24.34375 2.3125 -25.375 C 1.914062 -26.40625 1.71875 -27.507812 1.71875 -28.6875 C 1.71875 -30.5625 2.007812 -32.203125 2.59375 -33.609375 C 3.1875 -35.015625 4.015625 -36.191406 5.078125 -37.140625 C 6.148438 -38.097656 7.421875 -38.816406 8.890625 -39.296875 C 10.359375 -39.773438 11.96875 -40.015625 13.71875 -40.015625 Z M 24.234375 -40.015625 "/></g></g></g><g fill="#7b2cbf" fill-opacity="1"><g transform="translate(127.162259, 305.405256)"><g><path d="M 11.09375 -27.78125 L 11.09375 -11.546875 C 11.09375 -10.472656 11.335938 -9.570312 11.828125 -8.84375 C 12.328125 -8.125 13.1875 -7.765625 14.40625 -7.765625 C 15.09375 -7.765625 15.632812 -7.878906 16.03125 -8.109375 C 16.425781 -8.335938 16.726562 -8.648438 16.9375 -9.046875 C 17.15625 -9.453125 17.300781 -9.894531 17.375 -10.375 C 17.445312 -10.851562 17.484375 -11.359375 17.484375 -11.890625 L 17.484375 -27.78125 L 26.296875 -27.78125 L 26.296875 -9.71875 C 26.296875 -7.28125 25.675781 -5.210938 24.4375 -3.515625 C 23.195312 -1.816406 21.375 -0.566406 18.96875 0.234375 L 18.96875 12 L 9.828125 12 L 9.828125 0.234375 C 4.796875 -1.296875 2.28125 -4.613281 2.28125 -9.71875 L 2.28125 -27.78125 Z M 11.09375 -27.78125 "/></g></g></g><g fill="#7b2cbf" fill-opacity="1"><g transform="translate(155.742513, 305.405256)"><g><path d="M 26.234375 0 L 17.4375 0 L 17.4375 -16.0625 C 17.4375 -17.125 17.164062 -18.007812 16.625 -18.71875 C 16.09375 -19.425781 15.316406 -19.78125 14.296875 -19.78125 C 13.265625 -19.78125 12.476562 -19.425781 11.9375 -18.71875 C 11.40625 -18.007812 11.140625 -17.125 11.140625 -16.0625 L 11.140625 0 L 2.34375 0 L 2.34375 -16.125 C 2.34375 -17.90625 2.609375 -19.546875 3.140625 -21.046875 C 3.671875 -22.554688 4.453125 -23.863281 5.484375 -24.96875 C 6.515625 -26.082031 7.765625 -26.941406 9.234375 -27.546875 C 10.703125 -28.160156 12.390625 -28.46875 14.296875 -28.46875 C 16.191406 -28.46875 17.882812 -28.148438 19.375 -27.515625 C 20.863281 -26.890625 22.113281 -26.03125 23.125 -24.9375 C 24.132812 -23.851562 24.90625 -22.550781 25.4375 -21.03125 C 25.96875 -19.507812 26.234375 -17.875 26.234375 -16.125 Z M 26.234375 0 "/></g></g></g><g fill="#7b2cbf" fill-opacity="1"><g transform="translate(184.322767, 305.405256)"><g><path d="M 20 -27.78125 L 20 -19.484375 L 15.953125 -19.484375 C 14.191406 -19.484375 12.816406 -18.988281 11.828125 -18 C 10.835938 -17.007812 10.34375 -15.640625 10.34375 -13.890625 C 10.34375 -12.140625 10.835938 -10.757812 11.828125 -9.75 C 12.816406 -8.738281 14.191406 -8.234375 15.953125 -8.234375 L 20 -8.234375 L 20 0 L 14.34375 0 C 12.632812 0 10.976562 -0.332031 9.375 -1 C 7.769531 -1.664062 6.367188 -2.609375 5.171875 -3.828125 C 3.972656 -5.046875 3.007812 -6.507812 2.28125 -8.21875 C 1.5625 -9.9375 1.203125 -11.828125 1.203125 -13.890625 C 1.203125 -15.984375 1.570312 -17.882812 2.3125 -19.59375 C 3.050781 -21.3125 4.03125 -22.769531 5.25 -23.96875 C 6.476562 -25.175781 7.878906 -26.113281 9.453125 -26.78125 C 11.035156 -27.445312 12.664062 -27.78125 14.34375 -27.78125 Z M 20 -27.78125 "/></g></g></g><g fill="#7b2cbf" fill-opacity="1"><g transform="translate(206.558215, 305.405256)"><g><path d="M 12.796875 -40.015625 L 12.796875 -13.484375 C 12.796875 -12.234375 13.140625 -11.160156 13.828125 -10.265625 C 14.515625 -9.367188 15.71875 -8.921875 17.4375 -8.921875 C 19.144531 -8.921875 20.34375 -9.367188 21.03125 -10.265625 C 21.71875 -11.160156 22.0625 -12.234375 22.0625 -13.484375 L 22.0625 -40.015625 L 32 -40.015625 L 32 -14.171875 C 32 -11.960938 31.664062 -9.941406 31 -8.109375 C 30.332031 -6.285156 29.367188 -4.722656 28.109375 -3.421875 C 26.859375 -2.128906 25.335938 -1.117188 23.546875 -0.390625 C 21.753906 0.328125 19.71875 0.6875 17.4375 0.6875 C 15.144531 0.6875 13.09375 0.328125 11.28125 -0.390625 C 9.476562 -1.117188 7.957031 -2.140625 6.71875 -3.453125 C 5.476562 -4.773438 4.523438 -6.347656 3.859375 -8.171875 C 3.191406 -10.003906 2.859375 -12.046875 2.859375 -14.296875 L 2.859375 -40.015625 Z M 12.796875 -40.015625 "/></g></g></g><g fill="#7b2cbf" fill-opacity="1"><g transform="translate(241.483292, 305.405256)"><g><path d="M 33.375 -13.828125 C 33.375 -11.660156 32.984375 -9.679688 32.203125 -7.890625 C 31.421875 -6.097656 30.351562 -4.570312 29 -3.3125 C 27.65625 -2.050781 26.085938 -1.066406 24.296875 -0.359375 C 22.503906 0.335938 20.597656 0.6875 18.578125 0.6875 C 17.503906 0.6875 16.601562 0.617188 15.875 0.484375 C 15.15625 0.347656 14.570312 0.1875 14.125 0 L 14.125 -8.453125 C 14.34375 -8.304688 14.765625 -8.132812 15.390625 -7.9375 C 16.023438 -7.75 16.859375 -7.65625 17.890625 -7.65625 C 18.804688 -7.65625 19.65625 -7.804688 20.4375 -8.109375 C 21.21875 -8.421875 21.882812 -8.851562 22.4375 -9.40625 C 22.988281 -9.957031 23.425781 -10.613281 23.75 -11.375 C 24.070312 -12.132812 24.234375 -12.972656 24.234375 -13.890625 C 24.234375 -15.710938 23.640625 -17.207031 22.453125 -18.375 C 21.273438 -19.539062 19.773438 -20.125 17.953125 -20.125 C 16.847656 -20.125 15.894531 -19.929688 15.09375 -19.546875 C 14.289062 -19.160156 13.617188 -18.644531 13.078125 -18 C 12.546875 -17.351562 12.144531 -16.59375 11.875 -15.71875 C 11.613281 -14.84375 11.484375 -13.925781 11.484375 -12.96875 L 11.484375 12 L 2.34375 12 L 2.34375 -15.203125 C 2.34375 -17.179688 2.742188 -18.976562 3.546875 -20.59375 C 4.347656 -22.21875 5.460938 -23.609375 6.890625 -24.765625 C 8.316406 -25.929688 9.984375 -26.835938 11.890625 -27.484375 C 13.796875 -28.140625 15.875 -28.46875 18.125 -28.46875 C 20.332031 -28.46875 22.378906 -28.082031 24.265625 -27.3125 C 26.148438 -26.550781 27.757812 -25.515625 29.09375 -24.203125 C 30.425781 -22.890625 31.472656 -21.347656 32.234375 -19.578125 C 32.992188 -17.804688 33.375 -15.890625 33.375 -13.828125 Z M 33.375 -13.828125 "/></g></g></g></svg>